<svg height="100" viewBox="0 0 100 100" width="100" xmlns="http://www.w3.org/2000/svg"><path d="m72.635 37.698c-2.475-8.168-4.635-16.698-12.513-19.124l.373-1.892c4.166-2.658 2.345-12.31.641-12.668-1.687-.355-7.719 6.057-5.661 11.601l-.62 1.61c-1.792-.222-3.439-.225-4.855-.225s-3.063.003-4.855.225l-.62-1.61c2.058-5.544-3.974-11.955-5.661-11.601-1.704.359-3.525 10.01.641 12.668l.373 1.892c-7.878 2.426-10.038 10.956-12.513 19.124-3.765 3.785-9.365 13.158-9.365 29.983 0 4.29 2.771 5.08 5 5.319 3.149 11.545 10 17 10 17h17 17s6.851-5.455 10-17c2.229-.239 5-1.029 5-5.319 0-16.825-5.6-26.198-9.365-29.983z" fill="#7c8a9e"/><path d="m67 91h-34c-.227 0-.446-.077-.623-.218-.284-.227-6.891-5.589-10.159-16.872-1.827-.274-5.218-1.262-5.218-6.228 0-18.988 7.028-27.962 9.478-30.507l.322-1.07c2.28-7.592 4.636-15.435 11.928-18.193l-.126-.643c-2.699-2.076-2.982-6.586-2.374-9.928.269-1.473.941-3.992 2.43-4.305 1.521-.321 3.38 1.614 4.109 2.459 2.151 2.497 3.978 6.421 2.821 10.099l.214.553c1.572-.147 3.01-.147 4.198-.147s2.626 0 4.198.147l.214-.553c-1.156-3.678.67-7.602 2.821-10.099.729-.846 2.585-2.782 4.109-2.459 1.488.313 2.161 2.832 2.43 4.305.608 3.342.325 7.852-2.374 9.928l-.126.643c7.292 2.758 9.648 10.601 11.928 18.193l.322 1.07c2.45 2.544 9.478 11.519 9.478 30.507 0 4.967-3.391 5.955-5.218 6.229-3.269 11.282-9.875 16.645-10.159 16.872-.177.14-.396.217-.623.217zm-33.629-2h33.258c1.242-1.109 6.728-6.444 9.406-16.263.108-.397.449-.688.858-.731 2.465-.264 4.107-1.101 4.107-4.324 0-18.704-6.944-27.139-9.073-29.278-.115-.116-.2-.258-.248-.415l-.394-1.308c-2.318-7.719-4.509-15.011-11.457-17.15-.49-.15-.786-.646-.688-1.149l.373-1.892c.053-.268.213-.503.443-.649 1.665-1.063 2.012-3.584 2.07-4.992.122-2.969-.718-5.333-1.158-5.84-.418.139-1.874 1.161-3.199 3.25-.909 1.433-2.282 4.249-1.257 7.009.085.229.083.48-.004.708l-.62 1.61c-.165.429-.599.686-1.057.633-1.752-.219-3.404-.219-4.731-.219s-2.979 0-4.732.217c-.456.054-.892-.205-1.057-.633l-.62-1.61c-.087-.228-.089-.479-.004-.708 1.025-2.76-.348-5.576-1.257-7.009-1.287-2.03-2.699-3.053-3.216-3.23-.444.544-1.263 2.888-1.142 5.82.059 1.408.405 3.929 2.07 4.992.23.146.391.381.443.649l.373 1.892c.099.502-.197.999-.688 1.149-6.948 2.14-9.139 9.431-11.457 17.15l-.394 1.308c-.048.157-.133.299-.248.415-2.127 2.141-9.071 10.576-9.071 29.28 0 3.224 1.642 4.06 4.106 4.324.409.043.75.334.858.731 2.68 9.819 8.165 15.154 9.407 16.263z" fill="#1f212b"/><path d="m74.5 61c0 14.083-10.969 25.5-24.5 25.5s-24.5-11.417-24.5-25.5 9-24.5 24.5-24.5 24.5 10.417 24.5 24.5z" fill="#fef6aa"/><path d="m50 87c-13.785 0-25-11.664-25-26 0-15.187 9.813-25 25-25s25 9.813 25 25c0 14.336-11.215 26-25 26zm0-50c-14.579 0-24 9.42-24 24 0 13.785 10.767 25 24 25s24-11.215 24-25c0-14.58-9.421-24-24-24z" fill="#1f212b"/><circle cx="40" cy="26" fill="#fefdef" r="3.5"/><g fill="#1f212b"><path d="m40 30c-2.206 0-4-1.794-4-4s1.794-4 4-4 4 1.794 4 4-1.794 4-4 4zm0-7c-1.654 0-3 1.346-3 3s1.346 3 3 3 3-1.346 3-3-1.346-3-3-3z"/><path d="m34.501 30c-.035 0-.07-.003-.105-.011l-14-3c-.271-.058-.442-.324-.385-.594.059-.27.329-.442.594-.384l14 3c.271.058.442.324.385.594-.052.234-.259.395-.489.395z"/><path d="m33.059 32.354c-.004 0-.008 0-.012 0l-14.559-.354c-.276-.007-.495-.236-.488-.512s.236-.467.512-.488l14.559.354c.276.007.495.236.488.512-.007.272-.23.488-.5.488z"/><path d="m18.499 37c-.244 0-.458-.18-.494-.429-.039-.273.151-.527.425-.566l14-2c.268-.039.526.151.565.424s-.151.527-.425.566l-14 2c-.023.004-.048.005-.071.005z"/><path d="m65.499 30c-.23 0-.438-.161-.488-.395-.058-.27.114-.536.385-.594l14-3c.268-.058.535.114.594.384.058.27-.114.536-.385.594l-14 3c-.036.008-.071.011-.106.011z"/><path d="m66.941 32.354c-.271 0-.493-.216-.5-.488-.007-.276.212-.505.488-.512l14.559-.354c.283.028.505.212.512.488s-.212.505-.488.512l-14.559.354c-.004 0-.008 0-.012 0z"/><path d="m81.501 37c-.023 0-.048-.001-.071-.005l-14-2c-.273-.039-.464-.292-.425-.566.04-.273.299-.464.565-.424l14 2c.273.039.464.292.425.566-.036.249-.25.429-.494.429z"/><path d="m53 27.154c0 .637-1.343 1.846-3 1.846s-3-1.209-3-1.846 1.343-1.154 3-1.154 3 .517 3 1.154z"/><circle cx="40" cy="26" r="1.5"/></g><circle cx="60" cy="26" fill="#fefdef" r="3.5"/><path d="m60 30c-2.206 0-4-1.794-4-4s1.794-4 4-4 4 1.794 4 4-1.794 4-4 4zm0-7c-1.654 0-3 1.346-3 3s1.346 3 3 3 3-1.346 3-3-1.346-3-3-3z" fill="#1f212b"/><circle cx="60" cy="26" fill="#1f212b" r="1.5"/><path d="m53.765 44.635c0 .971-1.686-1.231-3.765-1.231s-3.765 2.202-3.765 1.231 1.686-3.517 3.765-3.517 3.765 2.546 3.765 3.517z" fill="#1f212b"/><path d="m48.752 52.215c.069.957-1.748-1.092-3.795-.944-2.048.148-3.551 2.437-3.62 1.481-.069-.957 1.409-3.584 3.457-3.732 2.047-.149 3.889 2.238 3.958 3.195z" fill="#1f212b"/><path d="m51.248 52.215c-.069.957 1.748-1.092 3.795-.944 2.048.148 3.551 2.437 3.62 1.481.069-.957-1.409-3.584-3.457-3.732-2.047-.149-3.889 2.238-3.958 3.195z" fill="#1f212b"/><path d="m38.752 53.618c.311.92-2.183-.753-4.152-.086s-2.989 3.189-3.3 2.269.931-3.821 2.9-4.488 4.241 1.385 4.552 2.305z" fill="#1f212b"/><path d="m61.248 53.618c-.311.92 2.183-.753 4.152-.086s2.989 3.189 3.3 2.269-.931-3.821-2.9-4.488-4.241 1.385-4.552 2.305z" fill="#1f212b"/><path d="m35.358 47.7c.261 1.006 1.483-1.53 3.496-2.052s4.054.958 3.793-.048-1.847-2.984-3.86-2.462-3.69 3.556-3.429 4.562z" fill="#1f212b"/><path d="m64.642 47.7c-.261 1.006-1.483-1.53-3.496-2.052s-4.054.958-3.793-.048 1.847-2.984 3.86-2.462 3.69 3.556 3.429 4.562z" fill="#1f212b"/></svg>